<svg xmlns="http://www.w3.org/2000/svg" xmlns:xlink="http://www.w3.org/1999/xlink" width="501.985" height="145.633" viewBox="0 0 501.985 145.633">
  <defs>
    <clipPath id="clip-path">
      <rect id="Rectangle_86" data-name="Rectangle 86" width="80.109" height="107.032" fill="none"/>
    </clipPath>
    <clipPath id="clip-path-2">
      <rect id="Rectangle_88" data-name="Rectangle 88" width="0.004" height="0.445" fill="none"/>
    </clipPath>
    <clipPath id="clip-path-3">
      <rect id="Rectangle_87" data-name="Rectangle 87" width="0.004" height="0.447" fill="none"/>
    </clipPath>
    <clipPath id="clip-path-5">
      <rect id="Rectangle_89" data-name="Rectangle 89" width="0.004" height="0.443" fill="none"/>
    </clipPath>
    <clipPath id="clip-path-6">
      <rect id="Rectangle_92" data-name="Rectangle 92" width="0.007" height="0.445" fill="none"/>
    </clipPath>
    <clipPath id="clip-path-7">
      <rect id="Rectangle_91" data-name="Rectangle 91" width="0.008" height="0.447" fill="none"/>
    </clipPath>
  </defs>
  <g id="Group_494" data-name="Group 494" transform="translate(166.316 3296.764)">
    <g id="Group_493" data-name="Group 493">
      <path id="Path_810" data-name="Path 810" d="M12.122,43.65a4.635,4.635,0,0,1,.3,5.358,4.906,4.906,0,0,1-2.064,1.739,7.269,7.269,0,0,1-3.138.638H0V33.34H6.879a7.454,7.454,0,0,1,3.164.623,4.628,4.628,0,0,1,2,1.682,4.238,4.238,0,0,1,.676,2.343,4,4,0,0,1-.833,2.595,4.855,4.855,0,0,1-2.224,1.532,3.994,3.994,0,0,1,2.469,1.532M2.966,40.922H6.627a3.568,3.568,0,0,0,2.27-.657,2.33,2.33,0,0,0,.818-1.911A2.366,2.366,0,0,0,8.9,36.447a3.434,3.434,0,0,0-2.278-.688H2.966Zm6.352,7.322a2.51,2.51,0,0,0,.856-2.025,2.614,2.614,0,0,0-.906-2.1,3.576,3.576,0,0,0-2.411-.78H2.966v5.629h3.99a3.533,3.533,0,0,0,2.362-.741" transform="translate(-166.316 -3202.697)" fill="#edf3fa"/>
      <path id="Path_811" data-name="Path 811" d="M10.827,33.338v11.5a4.1,4.1,0,0,0,1.089,3.107,4.16,4.16,0,0,0,2.992,1.024,4.185,4.185,0,0,0,3.031-1.024,4.118,4.118,0,0,0,1.078-3.088V33.338h2.966V44.784a6.873,6.873,0,0,1-.963,3.741,5.952,5.952,0,0,1-2.564,2.282,8.271,8.271,0,0,1-3.558.741,8.149,8.149,0,0,1-3.543-.741,5.789,5.789,0,0,1-2.534-2.282,7.048,7.048,0,0,1-.959-3.741V33.338Z" transform="translate(-144.139 -3202.696)" fill="#edf3fa"/>
      <path id="Path_812" data-name="Path 812" d="M19.154,51.1A5.352,5.352,0,0,1,16.869,49.3a4.565,4.565,0,0,1-.833-2.725h3.172a2.843,2.843,0,0,0,.917,1.922,3.269,3.269,0,0,0,2.3.741,3.513,3.513,0,0,0,2.385-.741,2.408,2.408,0,0,0,.86-1.911,2.081,2.081,0,0,0-.535-1.483,3.562,3.562,0,0,0-1.322-.883,19.115,19.115,0,0,0-2.194-.673,21.148,21.148,0,0,1-2.866-.948,4.71,4.71,0,0,1-1.884-1.483,4.3,4.3,0,0,1-.776-2.7,4.8,4.8,0,0,1,.776-2.729A4.94,4.94,0,0,1,19.051,33.9a7.884,7.884,0,0,1,3.245-.615,6.765,6.765,0,0,1,4.3,1.311,4.827,4.827,0,0,1,1.853,3.592H25.173a2.386,2.386,0,0,0-.936-1.685,3.467,3.467,0,0,0-2.255-.7,3.2,3.2,0,0,0-2.075.646A2.258,2.258,0,0,0,19.1,38.3a1.921,1.921,0,0,0,.5,1.368,3.568,3.568,0,0,0,1.288.841,19.653,19.653,0,0,0,2.129.673,23.424,23.424,0,0,1,2.931,1A4.893,4.893,0,0,1,27.875,43.7a4.394,4.394,0,0,1,.791,2.736,4.92,4.92,0,0,1-.741,2.6A5.385,5.385,0,0,1,25.769,51a7.16,7.16,0,0,1-3.336.741,8.078,8.078,0,0,1-3.271-.634" transform="translate(-121.072 -3202.869)" fill="#edf3fa"/>
      <rect id="Rectangle_83" data-name="Rectangle 83" width="2.962" height="18.042" transform="translate(-75.185 -3169.355)" fill="#edf3fa"/>
      <path id="Path_813" data-name="Path 813" d="M44.252,51.4H41.286l-8.9-13.471V51.4H29.42V33.333h2.966l8.9,13.444V33.333h2.966Z" transform="translate(-83.303 -3202.711)" fill="#edf3fa"/>
      <path id="Path_814" data-name="Path 814" d="M40.927,35.747v5.3h6.229v2.411H40.927v5.526h7.009V51.4H37.965V33.332h9.971v2.415Z" transform="translate(-59.193 -3202.713)" fill="#edf3fa"/>
      <path id="Path_815" data-name="Path 815" d="M48.168,51.1A5.352,5.352,0,0,1,45.883,49.3a4.565,4.565,0,0,1-.833-2.725h3.172a2.842,2.842,0,0,0,.917,1.922,3.263,3.263,0,0,0,2.3.741,3.507,3.507,0,0,0,2.385-.741,2.408,2.408,0,0,0,.86-1.911,2.081,2.081,0,0,0-.535-1.483,3.562,3.562,0,0,0-1.322-.883,19.113,19.113,0,0,0-2.194-.673,21.149,21.149,0,0,1-2.866-.948,4.71,4.71,0,0,1-1.884-1.483,4.3,4.3,0,0,1-.776-2.7,4.8,4.8,0,0,1,.776-2.729A4.94,4.94,0,0,1,48.065,33.9a7.884,7.884,0,0,1,3.245-.615,6.765,6.765,0,0,1,4.3,1.311,4.827,4.827,0,0,1,1.853,3.592H54.187a2.386,2.386,0,0,0-.936-1.685,3.47,3.47,0,0,0-2.259-.7,3.2,3.2,0,0,0-2.075.646,2.258,2.258,0,0,0-.806,1.853,1.908,1.908,0,0,0,.508,1.368,3.521,3.521,0,0,0,1.284.841,19.653,19.653,0,0,0,2.129.673,23.316,23.316,0,0,1,2.924,1A4.893,4.893,0,0,1,56.878,43.7a4.37,4.37,0,0,1,.791,2.736,4.92,4.92,0,0,1-.741,2.6A5.385,5.385,0,0,1,54.772,51a7.16,7.16,0,0,1-3.336.741,8.078,8.078,0,0,1-3.271-.634" transform="translate(-39.205 -3202.869)" fill="#edf3fa"/>
      <path id="Path_816" data-name="Path 816" d="M55.91,51.1A5.352,5.352,0,0,1,53.624,49.3a4.561,4.561,0,0,1-.829-2.725h3.168a2.847,2.847,0,0,0,.921,1.922,3.254,3.254,0,0,0,2.3.741,3.523,3.523,0,0,0,2.389-.741,2.416,2.416,0,0,0,.856-1.911A2.081,2.081,0,0,0,61.89,45.1a3.548,3.548,0,0,0-1.318-.883,19.175,19.175,0,0,0-2.2-.673,21.147,21.147,0,0,1-2.866-.948,4.8,4.8,0,0,1-1.884-1.483,4.3,4.3,0,0,1-.776-2.7,4.8,4.8,0,0,1,.776-2.729A4.966,4.966,0,0,1,55.806,33.9a7.873,7.873,0,0,1,3.245-.615,6.776,6.776,0,0,1,4.3,1.311A4.839,4.839,0,0,1,65.2,38.186H61.932A2.36,2.36,0,0,0,61,36.5a3.47,3.47,0,0,0-2.259-.7,3.2,3.2,0,0,0-2.075.646,2.285,2.285,0,0,0-.806,1.853,1.9,1.9,0,0,0,.508,1.368,3.553,3.553,0,0,0,1.284.841,19.654,19.654,0,0,0,2.129.673,22.681,22.681,0,0,1,2.924.99,4.865,4.865,0,0,1,1.918,1.517,4.373,4.373,0,0,1,.795,2.736,4.91,4.91,0,0,1-.741,2.6,5.331,5.331,0,0,1-2.155,1.96,7.114,7.114,0,0,1-3.336.741,8.142,8.142,0,0,1-3.271-.634" transform="translate(-17.352 -3202.869)" fill="#edf3fa"/>
      <path id="Path_817" data-name="Path 817" d="M69.051,51.1A5.352,5.352,0,0,1,66.766,49.3a4.565,4.565,0,0,1-.833-2.725H69.1a2.843,2.843,0,0,0,.917,1.922,3.269,3.269,0,0,0,2.3.741,3.513,3.513,0,0,0,2.385-.741,2.408,2.408,0,0,0,.86-1.911,2.082,2.082,0,0,0-.535-1.483,3.562,3.562,0,0,0-1.322-.883,19.116,19.116,0,0,0-2.194-.673A21.149,21.149,0,0,1,68.65,42.6a4.71,4.71,0,0,1-1.884-1.483,4.3,4.3,0,0,1-.776-2.7,4.8,4.8,0,0,1,.776-2.729A4.94,4.94,0,0,1,68.948,33.9a7.855,7.855,0,0,1,3.241-.615,6.765,6.765,0,0,1,4.3,1.311,4.827,4.827,0,0,1,1.853,3.592H75.066A2.386,2.386,0,0,0,74.13,36.5a3.47,3.47,0,0,0-2.259-.7,3.2,3.2,0,0,0-2.075.646A2.258,2.258,0,0,0,68.99,38.3a1.908,1.908,0,0,0,.508,1.368,3.521,3.521,0,0,0,1.284.841,19.653,19.653,0,0,0,2.129.673,22.63,22.63,0,0,1,2.92.99,4.85,4.85,0,0,1,1.922,1.517,4.377,4.377,0,0,1,.791,2.736,4.92,4.92,0,0,1-.741,2.6,5.358,5.358,0,0,1-2.155,1.96,7.16,7.16,0,0,1-3.336.741,8.078,8.078,0,0,1-3.271-.634" transform="translate(19.719 -3202.869)" fill="#edf3fa"/>
      <path id="Path_818" data-name="Path 818" d="M78.125,50.544a8.7,8.7,0,0,1-3.34-3.294,9.346,9.346,0,0,1-1.242-4.766,9.223,9.223,0,0,1,1.234-4.746,8.758,8.758,0,0,1,3.34-3.287,9.744,9.744,0,0,1,9.267,0,8.758,8.758,0,0,1,3.34,3.287,9.266,9.266,0,0,1,1.219,4.746,9.373,9.373,0,0,1-1.219,4.766,8.7,8.7,0,0,1-3.34,3.294,9.723,9.723,0,0,1-9.267,0m7.823-2.205A5.67,5.67,0,0,0,88.126,46a7.5,7.5,0,0,0,.795-3.52,7.373,7.373,0,0,0-.795-3.5,5.591,5.591,0,0,0-2.186-2.312,6.768,6.768,0,0,0-6.394,0,5.543,5.543,0,0,0-2.186,2.312,7.325,7.325,0,0,0-.791,3.5A7.5,7.5,0,0,0,77.36,46a5.6,5.6,0,0,0,2.186,2.335,6.643,6.643,0,0,0,6.394,0" transform="translate(41.191 -3202.862)" fill="#edf3fa"/>
      <path id="Path_819" data-name="Path 819" d="M85.728,49h6.1v2.389H82.766V33.338h2.966Z" transform="translate(67.22 -3202.696)" fill="#edf3fa"/>
      <path id="Path_820" data-name="Path 820" d="M92.377,33.338v11.5a4.111,4.111,0,0,0,1.078,3.107,4.155,4.155,0,0,0,3,1.036,4.2,4.2,0,0,0,3.023-1.036,4.118,4.118,0,0,0,1.078-3.088V33.338h2.966V44.784a6.943,6.943,0,0,1-.967,3.741,5.962,5.962,0,0,1-2.568,2.282,8.266,8.266,0,0,1-3.554.741,8.166,8.166,0,0,1-3.546-.741,5.789,5.789,0,0,1-2.534-2.282,7.042,7.042,0,0,1-.932-3.741V33.338Z" transform="translate(85.98 -3202.696)" fill="#edf3fa"/>
      <path id="Path_821" data-name="Path 821" d="M110.111,33.338v2.415h-4.819V51.38h-2.969V35.753H97.5V33.338Z" transform="translate(108.802 -3202.695)" fill="#edf3fa"/>
      <rect id="Rectangle_84" data-name="Rectangle 84" width="2.958" height="18.042" transform="translate(236.38 -3169.355)" fill="#edf3fa"/>
      <path id="Path_822" data-name="Path 822" d="M115.074,50.549a8.768,8.768,0,0,1-3.336-3.294,9.349,9.349,0,0,1-1.234-4.766,9.223,9.223,0,0,1,1.234-4.746,8.829,8.829,0,0,1,3.336-3.287,9.763,9.763,0,0,1,9.3,0,8.711,8.711,0,0,1,3.332,3.287,9.248,9.248,0,0,1,1.2,4.746,9.382,9.382,0,0,1-1.219,4.766,8.7,8.7,0,0,1-3.34,3.294,9.727,9.727,0,0,1-9.29,0m7.827-2.205a5.681,5.681,0,0,0,2.19-2.335,7.547,7.547,0,0,0,.791-3.52,7.414,7.414,0,0,0-.791-3.5,5.6,5.6,0,0,0-2.19-2.312,6.768,6.768,0,0,0-6.394,0,5.543,5.543,0,0,0-2.186,2.312,7.407,7.407,0,0,0-.795,3.5,7.5,7.5,0,0,0,.795,3.52,5.6,5.6,0,0,0,2.186,2.335,6.643,6.643,0,0,0,6.394,0" transform="translate(145.481 -3202.866)" fill="#edf3fa"/>
      <path id="Path_823" data-name="Path 823" d="M134.506,51.4H131.54l-8.9-13.471V51.4h-2.966V33.333h2.966l8.9,13.444V33.333h2.966Z" transform="translate(171.36 -3202.711)" fill="#edf3fa"/>
      <path id="Path_824" data-name="Path 824" d="M131.17,51.1a5.352,5.352,0,0,1-2.285-1.808,4.565,4.565,0,0,1-.833-2.725h3.172a2.843,2.843,0,0,0,.917,1.922,3.263,3.263,0,0,0,2.3.741,3.519,3.519,0,0,0,2.385-.741,2.409,2.409,0,0,0,.86-1.911,2.081,2.081,0,0,0-.535-1.483,3.563,3.563,0,0,0-1.322-.883,19.114,19.114,0,0,0-2.194-.673,20.976,20.976,0,0,1-2.866-.948,4.71,4.71,0,0,1-1.884-1.483,4.3,4.3,0,0,1-.776-2.7,4.8,4.8,0,0,1,.776-2.729,4.94,4.94,0,0,1,2.182-1.789,7.873,7.873,0,0,1,3.245-.615,6.748,6.748,0,0,1,4.292,1.311,4.818,4.818,0,0,1,1.857,3.592h-3.271a2.386,2.386,0,0,0-.936-1.685,3.47,3.47,0,0,0-2.259-.7,3.2,3.2,0,0,0-2.075.646,2.272,2.272,0,0,0-.81,1.853,1.941,1.941,0,0,0,.508,1.368,3.568,3.568,0,0,0,1.288.841,19.653,19.653,0,0,0,2.129.673,22.626,22.626,0,0,1,2.92.99,4.849,4.849,0,0,1,1.922,1.517,4.4,4.4,0,0,1,.791,2.736,4.92,4.92,0,0,1-.741,2.6,5.358,5.358,0,0,1-2.155,1.96,7.16,7.16,0,0,1-3.336.741,8.078,8.078,0,0,1-3.271-.634" transform="translate(194.995 -3202.869)" fill="#edf3fa"/>
    </g>
    <g id="Group_492" data-name="Group 492">
      <g id="Group_491" data-name="Group 491">
        <path id="Path_825" data-name="Path 825" d="M43.411,72.194H30.1A13.313,13.313,0,0,1,16.794,58.887v-38.7a6.884,6.884,0,0,0-6.657-6.871,6.883,6.883,0,0,0-6.653,6.871V13.307A13.315,13.315,0,0,1,16.813,0a13.169,13.169,0,0,1,3.3.42c.432.107.852.245,1.253.371a13.346,13.346,0,0,1,7.926,7.941,12.693,12.693,0,0,1,.371,1.25,13.284,13.284,0,0,1,.42,3.336V58.9A13.31,13.31,0,0,0,43.392,72.2" transform="translate(-156.488 -3296.763)" fill="#4dacf5"/>
        <path id="Path_826" data-name="Path 826" d="M23.238,21.785l-.141-.092-.023-.023c-.138-.115-.275-.222-.417-.325.195.138.371.287.577.439" transform="translate(-102.386 -3236.532)" fill="#e6edf5"/>
        <path id="Path_827" data-name="Path 827" d="M92.155,92.381v13.3A13.312,13.312,0,0,0,78.848,92.373H13.307A13.308,13.308,0,0,1,0,79.074V13.308c0-.225,0-.455.019-.684a13.811,13.811,0,0,1,.787-3.89A13.3,13.3,0,0,1,3.9,3.911,12.87,12.87,0,0,1,7.169,1.549,15.955,15.955,0,0,1,10.995.234,12.153,12.153,0,0,1,13.349.051C15.825.028,18.3.051,20.767.02Q23.226,0,25.712,0h.91A13.311,13.311,0,0,0,13.307,13.308V72.2a6.887,6.887,0,0,0,6.879,6.879h58.8A13.18,13.18,0,0,1,85.75,81c.149.088.29.183.436.279a13.911,13.911,0,0,1,5.973,11.1" transform="translate(-166.316 -3296.76)" fill="#4dacf5"/>
        <g id="Group_475" data-name="Group 475" transform="translate(-155.607 -3296.764)">
          <g id="Group_474" data-name="Group 474" clip-path="url(#clip-path)">
            <path id="Path_828" data-name="Path 828" d="M82.914,93.721v13.307a13.2,13.2,0,0,0-1.269-5.664V94.99a13.906,13.906,0,0,0-5.973-11.1c-.145-.1-.29-.191-.432-.279a13.221,13.221,0,0,0-6.768-1.926H9.68A6.888,6.888,0,0,1,2.8,74.8V13.311A13.316,13.316,0,0,1,16.054,0h1.322A13.315,13.315,0,0,0,4.07,13.311V73.536a6.889,6.889,0,0,0,6.879,6.879H69.737A13.17,13.17,0,0,1,76.5,82.337c.149.088.29.183.436.279a13.906,13.906,0,0,1,5.973,11.1" transform="translate(-2.805 0.001)" fill="#edf3fa"/>
          </g>
        </g>
        <path id="Path_829" data-name="Path 829" d="M20.631,25.857v0Z" transform="translate(-108.103 -3223.804)" fill="#e6edf5"/>
        <path id="Path_830" data-name="Path 830" d="M20.631,25.857v0Z" transform="translate(-108.103 -3223.804)" fill="#e6edf5"/>
        <g id="Group_480" data-name="Group 480" transform="translate(-87.48 -3197.947)" opacity="0.5">
          <g id="Group_479" data-name="Group 479">
            <g id="Group_478" data-name="Group 478" clip-path="url(#clip-path-2)">
              <g id="Group_477" data-name="Group 477" transform="translate(0 -0.001)">
                <g id="Group_476" data-name="Group 476" clip-path="url(#clip-path-3)">
                  <path id="Path_831" data-name="Path 831" d="M20.63,25.857v0Z" transform="translate(-20.626 -25.856)" fill="#e6edf5"/>
                </g>
              </g>
            </g>
          </g>
        </g>
        <path id="Path_832" data-name="Path 832" d="M92.155,37.484A13.307,13.307,0,0,1,78.848,50.791H13.227a13.193,13.193,0,0,1-6.818-1.926L4.968,47.852A12.554,12.554,0,0,1,.417,40.8c-.046-.183-.1-.405-.141-.623a11.38,11.38,0,0,1-.21-1.441,4.827,4.827,0,0,1-.046-.577C0,37.938,0,37.713,0,37.484V24.173A13.31,13.31,0,0,0,13.307,37.484H71.965a6.884,6.884,0,0,0,6.871-6.657v0a6.886,6.886,0,0,0-6.871-6.657H78.84A13.314,13.314,0,0,1,92.151,37.484" transform="translate(-166.316 -3228.556)" fill="#e6edf5"/>
        <path id="Path_833" data-name="Path 833" d="M92.155,37.484A13.307,13.307,0,0,1,78.848,50.791H13.227a13.193,13.193,0,0,1-6.818-1.926L4.968,47.852A12.554,12.554,0,0,1,.417,40.8c-.046-.183-.1-.405-.141-.623a11.38,11.38,0,0,1-.21-1.441,4.827,4.827,0,0,1-.046-.577C0,37.938,0,37.713,0,37.484V24.173A13.31,13.31,0,0,0,13.307,37.484H71.965a6.884,6.884,0,0,0,6.871-6.657v0a6.886,6.886,0,0,0-6.871-6.657H78.84A13.314,13.314,0,0,1,92.151,37.484" transform="translate(-166.316 -3228.556)" fill="#4dacf5"/>
        <path id="Path_834" data-name="Path 834" d="M78.761,31.66a6.02,6.02,0,0,1,.073.825,6.876,6.876,0,0,1-6.875,6.653H13.308A13.292,13.292,0,0,1,0,25.858V24.173A13.288,13.288,0,0,0,13.277,37.48H71.958a6.868,6.868,0,0,0,6.795-5.82" transform="translate(-166.313 -3228.556)" fill="#edf3fa"/>
        <g id="Group_485" data-name="Group 485" transform="translate(-87.48 -3196.293)" opacity="0.5">
          <g id="Group_484" data-name="Group 484">
            <g id="Group_483" data-name="Group 483" clip-path="url(#clip-path-2)">
              <g id="Group_482" data-name="Group 482" transform="translate(0)">
                <g id="Group_481" data-name="Group 481" clip-path="url(#clip-path-5)">
                  <path id="Path_835" data-name="Path 835" d="M20.629,26.512v0Z" transform="translate(-20.629 -26.289)" fill="#e6edf5"/>
                </g>
              </g>
            </g>
          </g>
        </g>
        <path id="Path_836" data-name="Path 836" d="M39.011,37.489A13.257,13.257,0,0,1,34.456,47.5,13.311,13.311,0,0,0,24.443,25.436H22.815a6.859,6.859,0,0,0-3.982-1.265h6.879A13.31,13.31,0,0,1,39.019,37.478" transform="translate(-113.176 -3228.562)" fill="#edf3fa"/>
        <g id="Group_490" data-name="Group 490" transform="translate(-87.48 -3197.947)" opacity="0.4">
          <g id="Group_489" data-name="Group 489">
            <g id="Group_488" data-name="Group 488" clip-path="url(#clip-path-6)">
              <g id="Group_487" data-name="Group 487" transform="translate(0 -0.001)">
                <g id="Group_486" data-name="Group 486" clip-path="url(#clip-path-7)">
                  <path id="Path_837" data-name="Path 837" d="M20.631,25.857v0Z" transform="translate(-20.624 -25.856)" fill="#e6edf5"/>
                </g>
              </g>
            </g>
          </g>
        </g>
        <path id="Path_838" data-name="Path 838" d="M33.99,68.292a13.273,13.273,0,0,1-3.9-9.413V13.315a13.284,13.284,0,0,0-.42-3.336A11.6,11.6,0,0,0,29.3,8.736a13.269,13.269,0,0,0-3.642-5.354l-.031-.027c-.168-.161-.367-.317-.539-.47A13.338,13.338,0,0,0,20.121.417c-.145-.046-.3-.065-.439-.1A13.557,13.557,0,0,0,16.8,0c-.241,0-.478,0-.711.019A13.3,13.3,0,0,0,3.482,13.311v6.875a6.8,6.8,0,0,1,1.269-3.974V14.583a13.282,13.282,0,0,1,3.906-9.42,12.934,12.934,0,0,1,9.451-3.814A11.31,11.31,0,0,1,27.883,8.74a9.882,9.882,0,0,1,.371,1.242,13.828,13.828,0,0,1,.417,3.336V58.88A13.312,13.312,0,0,0,41.985,72.19H43.4a13.273,13.273,0,0,1-9.413-3.9" transform="translate(-156.491 -3296.763)" fill="#edf3fa"/>
      </g>
      <path id="Path_839" data-name="Path 839" d="M29.177.179H56.44A2.166,2.166,0,0,1,58.6,2.342V20.35a2.166,2.166,0,0,1-2.163,2.163H29.177a2.166,2.166,0,0,1-2.163-2.163V2.342A2.166,2.166,0,0,1,29.177.179m.638,30.137H55.795a2.159,2.159,0,0,1,2.159,2.159v81.951a2.156,2.156,0,0,1-2.155,2.159H29.811a2.155,2.155,0,0,1-2.159-2.148V32.476A2.158,2.158,0,0,1,29.8,30.316h.008" transform="translate(-90.092 -3296.258)" fill="#4dacf5"/>
      <path id="Path_840" data-name="Path 840" d="M41.692,9.477H67.649a2.159,2.159,0,0,1,2.159,2.159V21.6A31.987,31.987,0,0,1,95.638,7.566c18.34,0,29.339,12.111,29.339,31.723v54.29a2.159,2.159,0,0,1-2.159,2.159H96.857A2.149,2.149,0,0,1,94.7,93.591V49.015c0-9.405-4.945-14.507-12.122-14.507-7.338,0-12.757,5.1-12.757,14.507V93.579a2.156,2.156,0,0,1-2.155,2.159H41.692a2.155,2.155,0,0,1-2.159-2.148V11.632a2.155,2.155,0,0,1,2.152-2.159h.008" transform="translate(-54.768 -3275.415)" fill="#4dacf5"/>
      <path id="Path_841" data-name="Path 841" d="M68.138,9.477H94.118a2.159,2.159,0,0,1,2.159,2.159V21.6A31.992,31.992,0,0,1,122.119,7.566c18.34,0,29.339,12.111,29.339,31.723v54.29a2.16,2.16,0,0,1-2.163,2.159H123.338a2.156,2.156,0,0,1-2.159-2.155V49.015c0-9.405-4.941-14.507-12.122-14.507-7.338,0-12.753,5.1-12.753,14.507V93.579a2.156,2.156,0,0,1-2.155,2.159H68.138a2.155,2.155,0,0,1-2.159-2.148V11.632a2.155,2.155,0,0,1,2.152-2.159h.008" transform="translate(19.852 -3275.415)" fill="#4dacf5"/>
      <path id="Path_842" data-name="Path 842" d="M101.326,83.666V50.743a2.156,2.156,0,0,0-2.155-2.159H93.289a2.156,2.156,0,0,1-2.155-2.159V26.35a2.156,2.156,0,0,1,2.155-2.159h5.889a2.159,2.159,0,0,0,2.159-2.159V4.513a2.157,2.157,0,0,1,2.155-2.163h25.979a2.156,2.156,0,0,1,2.155,2.159V22.031a2.163,2.163,0,0,0,2.163,2.163h15.772a2.159,2.159,0,0,1,2.163,2.155V46.432a2.159,2.159,0,0,1-2.159,2.159H133.787a2.163,2.163,0,0,0-2.163,2.159V77.777c0,6.057,2.717,8.6,8.3,8.6a24.529,24.529,0,0,0,8.6-1.643,2.14,2.14,0,0,1,2.874,2.018v19.192a2.167,2.167,0,0,1-1.158,1.941,44.055,44.055,0,0,1-19.884,4.326c-18.172,0-29.021-7.972-29.021-28.551" transform="translate(90.83 -3290.132)" fill="#4dacf5"/>
      <path id="Path_843" data-name="Path 843" d="M109.281,70.567v-.325c0-17.855,13.555-27.1,33.8-27.1a66.213,66.213,0,0,1,20.732,3.34V45.039c0-8.927-5.583-14.029-17.22-14.029a59.384,59.384,0,0,0-21.573,3.948,2.163,2.163,0,0,1-2.79-1.253c-.019-.05-.034-.1-.05-.149l-5.014-17.224a2.17,2.17,0,0,1,1.284-2.625,86.519,86.519,0,0,1,33.084-5.962c15.47,0,25.991,3.665,32.847,10.521,6.539,6.374,9.252,15.309,9.252,27.443V93.122a2.159,2.159,0,0,1-2.159,2.159H165.814a2.159,2.159,0,0,1-2.159-2.159V86.347A32.541,32.541,0,0,1,138.3,97.192c-16.425,0-29.021-9.409-29.021-26.625m54.852-6.543V60.039a31.8,31.8,0,0,0-11.8-2.224c-8.767,0-13.872,4.311-13.872,10.681v.329c0,5.893,4.452,9.4,10.685,9.4a13.861,13.861,0,0,0,14.943-12.684,13.213,13.213,0,0,0,.042-1.506" transform="translate(142.034 -3274.95)" fill="#4dacf5"/>
    </g>
  </g>
</svg>
